<?xml version="1.0" encoding="UTF-8"?><svg id="Ebene_1" xmlns="http://www.w3.org/2000/svg" width="36.57mm" height="34.79mm" viewBox="0 0 103.68 98.61"><path d="M15.65,72.32v.02l36.22,26.27,12.49-9.09L20.43,57.62l-4.78,14.7Zm21.58-7.04v.02l14.62,10.6,12.49-9.07v-.02l-22.36-16.2-4.76,14.68Zm17.74,12.88l12.51,9.07,36.19-26.32-4.79-14.7-43.9,31.94Zm-.02-22.69l12.51,9.06,14.6-10.6v-.02l-4.79-14.7-22.32,16.26Zm-27.79-18.7l-5.57,17.18,12.51,9.07,8.51-26.25h-15.45ZM13.81,18.42L0,60.99l12.51,9.07L29.26,18.41l-15.45,.02Zm19.32-.02l-4.78,14.7,27.61-.02-4.78-14.68h-18.06Zm21.9-.02l8.56,26.25,12.49-9.09-5.58-17.16h-15.47ZM19.76,.06l-4.76,14.7,54.3-.04L64.53,.02,19.76,.06Zm64.07-.06l-15.45,.02,16.81,51.64,12.49-9.09L83.84,0Z"/></svg>