<svg width="40" height="40" viewBox="0 0 40 40" fill="none" xmlns="http://www.w3.org/2000/svg">
<g clip-path="url(#clip0_10724_31557)">
<path d="M20.0002 31.967C26.6094 31.967 31.9672 26.6092 31.9672 20C31.9672 13.3908 26.6094 8.03296 20.0002 8.03296C13.391 8.03296 8.0332 13.3908 8.0332 20C8.0332 26.6092 13.391 31.967 20.0002 31.967Z" fill="#0C2129"/>
<path d="M21.666 12.7085L13.4666 16.3591C12.7119 16.6951 12.3725 17.5793 12.7085 18.334L12.7086 18.3343C13.0446 19.089 13.9288 19.4284 14.6835 19.0924L22.8829 15.4417C23.6376 15.1057 23.977 14.2216 23.641 13.4669L23.6409 13.4666C23.3049 12.7119 22.4207 12.3725 21.666 12.7085Z" fill="#37BEC1"/>
<path d="M19.3915 18.6333L13.9251 21.0671C13.1704 21.4031 12.831 22.2873 13.167 23.042L13.1671 23.0423C13.5031 23.797 14.3873 24.1364 15.142 23.8004L20.6085 21.3665C21.3632 21.0305 21.7026 20.1464 21.3665 19.3917L21.3664 19.3914C21.0304 18.6367 20.1462 18.2973 19.3915 18.6333Z" fill="#FBB144"/>
<path d="M25.3164 20.9077L17.117 24.5584C16.3623 24.8944 16.0229 25.7785 16.3589 26.5332L16.359 26.5335C16.695 27.2882 17.5792 27.6276 18.3339 27.2916L26.5333 23.641C27.288 23.305 27.6274 22.4208 27.2914 21.6661L27.2913 21.6658C26.9553 20.9111 26.0711 20.5717 25.3164 20.9077Z" fill="#E4615E"/>
</g>
<defs>
<clipPath id="clip0_10724_31557">
<rect width="24" height="24" fill="white" transform="translate(8 8)"/>
</clipPath>
</defs>
</svg>
