<svg width="40" height="40" viewBox="0 0 40 40" fill="none" xmlns="http://www.w3.org/2000/svg">
<g clip-path="url(#clip0_10720_15399)">
<path d="M20 32C21.6197 32 23.1911 31.6825 24.6711 31.0568C26.1003 30.4523 27.3831 29.587 28.4854 28.4854C29.587 27.3839 30.4523 26.1003 31.0568 24.6711C31.6825 23.1911 32 21.6197 32 20C32 18.3803 31.6825 16.8089 31.0568 15.3289C30.4523 13.8997 29.587 12.6169 28.4854 11.5146C27.3831 10.413 26.1003 9.54773 24.6711 8.9432C23.1911 8.31751 21.6197 8 20 8C18.3803 8 16.8089 8.31751 15.3289 8.9432C13.8997 9.54773 12.6169 10.413 11.5146 11.5146C10.413 12.6161 9.54773 13.8997 8.9432 15.3289C8.3175 16.8089 8 18.3803 8 20C8 21.6197 8.3175 23.1911 8.9432 24.6711C9.54773 26.1003 10.413 27.3831 11.5146 28.4854C12.6161 29.587 13.8997 30.4523 15.3289 31.0568C16.8089 31.6833 18.3803 32 20 32Z" fill="white"/>
<path d="M20.0001 31.364C13.7239 31.364 8.63597 26.2761 8.63597 19.9999C8.63597 13.7236 13.7239 8.63574 20.0001 8.63574C26.2764 8.63574 31.3643 13.7236 31.3643 19.9999C31.3643 26.2761 26.2764 31.364 20.0001 31.364Z" fill="black"/>
<path d="M14.0138 19.9999C14.0138 18.7824 14.3796 17.6495 15.0061 16.7029L13.1477 14.8445L14.819 13.1731L16.6724 15.0265C17.6241 14.3872 18.7688 14.0139 19.999 14.0139C21.2165 14.0139 22.3494 14.3796 23.296 15.0062L25.1553 13.1477L26.8267 14.8191L24.9733 16.6724C25.6125 17.6241 25.9859 18.7688 25.9859 19.999C25.9859 21.2166 25.6201 22.3494 24.9936 23.296L26.8521 25.1553L25.1807 26.8267L23.3273 24.9733C22.3757 25.6125 21.2309 25.9859 20.0007 25.9859C18.7832 25.9859 17.6503 25.6202 16.7037 24.9936L14.8444 26.8529L13.1731 25.1816L15.0265 23.3282C14.3872 22.3748 14.0138 21.2301 14.0138 19.9999ZM23.6211 19.9999C23.6211 18.0026 21.9963 16.3778 19.999 16.3778C18.0017 16.3778 16.3769 18.0026 16.3769 19.9999C16.3769 21.9972 18.0017 23.622 19.999 23.622C21.9963 23.622 23.6211 21.9972 23.6211 19.9999Z" fill="white"/>
</g>
<defs>
<clipPath id="clip0_10720_15399">
<rect width="24" height="24" fill="white" transform="matrix(-1 0 0 1 32 8)"/>
</clipPath>
</defs>
</svg>
