<svg width="40" height="40" viewBox="0 0 40 40" fill="none" xmlns="http://www.w3.org/2000/svg">
<path fill-rule="evenodd" clip-rule="evenodd" d="M12.6381 12.3669C12.6873 12.3387 12.737 12.312 12.7872 12.287L19.6438 8.38046C20.5358 7.87318 21.6327 7.87318 22.5247 8.38046L30.5605 12.9588C31.4506 13.4679 32 14.4053 32 15.4216V24.5784C32 25.5947 31.4525 26.5339 30.5605 27.0412L22.5247 31.6195C21.6327 32.1268 20.5358 32.1268 19.6438 31.6195L11.608 27.0412C10.7179 26.5321 10.1685 25.5947 10.1685 24.5784V23.2303L9.48898 22.8431C8.5716 22.3197 8 21.3515 8 20.298V16.7067C8 15.6531 8.5716 14.685 9.48898 14.1615L9.48981 14.1611L12.6381 12.3669ZM20.5533 25.3951V22.6639C20.5533 22.3276 20.7358 22.0169 21.03 21.8497L23.4268 20.484C23.721 20.3168 24.086 20.3168 24.3803 20.484L26.777 21.8497C27.0712 22.0169 27.2538 22.3276 27.2538 22.6639V25.3951C27.2538 25.7314 27.0712 26.042 26.777 26.2093L24.3803 27.5749C24.086 27.7421 23.721 27.7421 23.4268 27.5749L21.03 26.2093C20.7358 26.042 20.5533 25.7314 20.5533 25.3951ZM21.6845 14.4884V16.1885C21.6845 16.3962 21.7963 16.5891 21.9806 16.6939L23.4723 17.5449C23.6548 17.6497 23.8801 17.6497 24.0627 17.5449L25.5543 16.6939C25.7368 16.5891 25.8504 16.398 25.8504 16.1885V14.4884C25.8504 14.2807 25.7387 14.0877 25.5543 13.9829L24.0627 13.132C23.8801 13.0272 23.6548 13.0272 23.4723 13.132L21.9806 13.9829C21.7981 14.0877 21.6845 14.2789 21.6845 14.4884ZM14.1308 13.7696C14.3301 13.7696 14.5312 13.821 14.71 13.9221L17.8609 15.7178C18.2185 15.9218 18.4401 16.2986 18.4401 16.7066V20.298C18.4401 20.706 18.2185 21.0828 17.8609 21.2868L14.71 23.0825C14.5312 23.1854 14.3301 23.235 14.1308 23.235C13.9315 23.235 13.7304 23.1836 13.5516 23.0825L10.4006 21.2868C10.0431 21.0828 9.82146 20.706 9.82146 20.298V16.7066C9.82146 16.2986 10.0431 15.9218 10.4006 15.7178L13.5516 13.9221C13.7304 13.8192 13.9297 13.7696 14.1308 13.7696Z" fill="#12C1AC"/>
</svg>
