<svg width="106" height="30" viewBox="0 0 106 30" fill="none" xmlns="http://www.w3.org/2000/svg">
<path fill-rule="evenodd" clip-rule="evenodd" d="M27.21 15.0731C27.21 15.2116 27.2079 15.3497 27.2038 15.4872L27.1889 15.4872L27.1888 15.4887L20.5867 15.4887L20.5867 15.1874L14.2163 15.1874C14.2179 15.1249 14.2187 15.0622 14.2187 14.9993C14.2187 14.9366 14.2179 14.8741 14.2163 14.8117L20.5867 14.8117L20.5867 14.5119L20.5965 14.5119L20.5965 14.5105L27.1986 14.5105C27.2062 14.6971 27.21 14.8847 27.21 15.0731ZM14.1056 13.7157L20.338 12.9489L20.3746 13.2479L26.9572 12.4379C26.8943 12.1148 26.8201 11.7957 26.735 11.4812L20.2559 12.2784L20.2925 12.5774L14.03 13.348C14.0583 13.4694 14.0835 13.5921 14.1056 13.7157ZM13.7802 12.509L19.7383 11.0203L19.8111 11.3126L26.132 9.73324C26.0024 9.42688 25.862 9.12621 25.7113 8.83174L19.5753 10.3649L19.648 10.6572L13.6414 12.158C13.6906 12.2735 13.7369 12.3905 13.7802 12.509ZM13.2529 11.3797L18.8222 9.27666L18.9282 9.55856L24.8198 7.33382C24.6284 7.05428 24.4269 6.78222 24.2158 6.51816L18.5845 8.64457L18.6905 8.92647L13.054 11.0549C13.123 11.1612 13.1894 11.2695 13.2529 11.3797ZM12.521 10.3352L17.4396 7.77172L17.5783 8.03898L23.018 5.20382C22.7676 4.96238 22.508 4.73041 22.2398 4.50851L17.1286 7.17245L17.2673 7.43971L12.2652 10.0468C12.353 10.1406 12.4383 10.2368 12.521 10.3352ZM11.3341 9.20917L15.787 6.37745L15.948 6.63181L20.8628 3.50633C20.5542 3.30988 20.2372 3.1255 19.9125 2.95383L15.4258 5.80712L15.5869 6.06148L11.0053 8.97511C11.1171 9.05012 11.2268 9.12818 11.3341 9.20917ZM10.2833 8.54955L14.0158 5.48817L14.2062 5.7213L18.4104 2.27289C18.0528 2.13633 17.688 2.01438 17.3168 1.90777L13.5889 4.96546L13.7793 5.19858L9.91082 8.37152C10.0369 8.42739 10.1611 8.48678 10.2833 8.54955ZM8.88986 8.00873L11.8387 5.07489L12.0505 5.28867L15.794 1.56412C15.3881 1.49677 14.976 1.44735 14.5588 1.41671L11.3638 4.59554L11.5756 4.80932L8.46267 7.90643C8.60668 7.93628 8.74912 7.97043 8.88986 8.00873ZM7.2592 7.76108L9.61001 4.91222L9.84167 5.1042L12.9028 1.39453C12.4381 1.4161 11.9795 1.46093 11.528 1.52789L9.09058 4.48176L9.32224 4.67374L6.77608 7.75933C6.84749 7.75724 6.91915 7.75618 6.99106 7.75618C7.08083 7.75618 7.17022 7.75782 7.2592 7.76108ZM5.85143 7.84571L7.66215 5.04272L7.9145 5.20643L10.1035 1.81782C9.60323 1.94793 9.11407 2.10573 8.63778 2.28949L7.09634 4.67564L7.34868 4.83935L5.34211 7.94554C5.50972 7.90634 5.67957 7.87299 5.85143 7.84571ZM4.2853 8.28082L5.58877 5.83942L5.85383 5.98154L7.57873 2.75082C7.0257 3.02027 6.49353 3.326 5.9853 3.66494L4.99447 5.52076L5.25952 5.66288L3.72564 8.53582C3.90788 8.44317 4.09457 8.35803 4.2853 8.28082ZM3.16243 8.85474L3.71603 7.28249L3.9995 7.38274L5.07531 4.32737C4.52917 4.7603 4.01683 5.23415 3.54287 5.7443L3.08041 7.05773L3.36389 7.15797L2.63936 9.21569C2.80811 9.08797 2.98261 8.96751 3.16243 8.85474ZM1.78096 9.97921L2.0253 8.83743L2.31922 8.9006L2.81185 6.59863C2.29359 7.25697 1.83436 7.96413 1.44213 8.7121L1.66018 8.75896L1.21141 10.6494C1.38774 10.4145 1.578 10.1907 1.78096 9.97921ZM0.765909 11.3168L0.765909 9.80463C0.399673 10.7719 0.139642 11.9742 8.91314e-05 13.1539C0.171247 12.501 0.431081 11.884 0.765909 11.3168ZM0.010053 16.8823C0.153692 17.8886 0.406505 18.8596 0.75608 19.7829L0.75608 18.6651C0.432399 18.1134 0.179548 17.5149 0.010053 16.8823ZM1.25914 19.4121L1.65035 21.2402L1.4323 21.287C1.82453 22.035 2.28376 22.7422 2.80202 23.4005L2.30939 21.0985L2.01547 21.1617L1.76816 20.0061C1.58813 19.8175 1.41817 19.6192 1.25914 19.4121ZM2.62571 20.7726L3.35406 22.8411L3.07058 22.9414L3.53305 24.2548C4.007 24.765 4.51935 25.2388 5.06548 25.6717L3.98968 22.6164L3.7062 22.7166L3.14959 21.1358C2.96946 21.0223 2.79468 20.9011 2.62571 20.7726ZM3.71177 21.4557L5.24969 24.3362L4.98464 24.4784L5.97547 26.3342C6.4837 26.6731 7.01587 26.9789 7.5689 27.2483L5.844 24.0176L5.57894 24.1597L4.27241 21.7126C4.08132 21.6348 3.89431 21.549 3.71177 21.4557ZM5.33015 22.0503L7.33886 25.1598L7.08651 25.3235L8.62795 27.7096C9.10424 27.8934 9.5934 28.0512 10.0937 28.1813L7.90467 24.7927L7.65232 24.9564L5.84012 22.1511C5.66803 22.1235 5.49796 22.0898 5.33015 22.0503ZM6.76559 22.239L9.31241 25.3254L9.08075 25.5174L11.5182 28.4712C11.9697 28.5382 12.4283 28.583 12.893 28.6046L9.83184 24.8949L9.60018 25.0869L7.24926 22.2379C7.16356 22.2409 7.07749 22.2424 6.99106 22.2424C6.91563 22.2424 6.84046 22.2413 6.76559 22.239ZM8.45412 22.094L11.5657 25.1898L11.354 25.4036L14.549 28.5824C14.9662 28.5518 15.3782 28.5024 15.7842 28.435L12.0406 24.7104L11.8288 24.9242L8.88175 21.9921C8.74087 22.0303 8.59828 22.0643 8.45412 22.094ZM9.90405 21.6301L13.7694 24.8005L13.579 25.0337L17.3069 28.0913C17.6782 27.9847 18.043 27.8628 18.4006 27.7262L14.1963 24.2778L14.0059 24.5109L10.2769 21.4524C10.1546 21.515 10.0303 21.5743 9.90405 21.6301ZM11.0001 21.027L15.577 23.9376L15.416 24.192L19.9027 27.0453C20.2274 26.8736 20.5444 26.6892 20.8529 26.4928L15.9382 23.3673L15.7771 23.6217L11.3293 20.7931C11.2218 20.874 11.1121 20.952 11.0001 21.027ZM12.2616 19.9556L17.2574 22.5594L17.1187 22.8267L22.23 25.4906C22.4982 25.2687 22.7578 25.0367 23.0082 24.7953L17.5684 21.9601L17.4297 22.2274L12.5177 19.6673C12.4349 19.7657 12.3495 19.8618 12.2616 19.9556ZM13.0518 18.9471L18.6807 21.0726L18.5747 21.3545L24.2059 23.481C24.417 23.2169 24.6186 22.9448 24.81 22.6653L18.9183 20.4406L18.8123 20.7225L13.2509 18.6224C13.1873 18.7325 13.1209 18.8408 13.0518 18.9471ZM13.6403 17.8433L19.6382 19.3419L19.5654 19.6342L25.7015 21.1674C25.8522 20.8729 25.9926 20.5722 26.1222 20.2659L19.8012 18.6865L19.7285 18.9788L13.7792 17.4923C13.7359 17.6108 13.6895 17.7278 13.6403 17.8433ZM14.0296 16.6523L20.2827 17.4217L20.246 17.7207L26.7252 18.5179C26.8103 18.2034 26.8845 17.8843 26.9473 17.5612L20.3648 16.7513L20.3282 17.0503L14.1053 16.2845C14.0832 16.4082 14.0579 16.5308 14.0296 16.6523Z" fill="#009393"/>
<path d="M34.9864 23.5V6.91521H41.0991C44.7951 6.91521 46.9511 8.97647 46.9511 12.3171C46.9511 15.6578 44.7951 17.719 41.0991 17.719H37.2846V23.5H34.9864ZM41.0517 15.5867C43.3972 15.5867 44.653 14.4731 44.653 12.3171C44.653 10.1611 43.3972 9.04754 41.0517 9.04754H37.2846V15.5867H41.0517ZM51.628 23.6422C49.5431 23.6422 48.7375 22.6945 48.7375 20.8227V6.91521H50.9409V20.3726C50.9409 21.2966 51.2252 21.6994 52.0545 21.6994C52.2203 21.6994 52.3862 21.6994 52.5757 21.6757V23.5237C52.3151 23.5948 51.9597 23.6422 51.628 23.6422ZM57.1291 23.7606C54.7362 23.7606 53.2909 22.6234 53.2909 20.491C53.2909 18.1455 55.2811 17.3399 57.7214 16.9135L60.8252 16.3685V15.9421C60.8252 14.0704 59.9248 13.5017 58.3611 13.5017C56.7737 13.5017 55.9682 14.0704 55.7786 15.3971H53.5752C53.7648 12.9094 55.7549 11.6063 58.4085 11.6063C61.4175 11.6063 63.0286 12.9331 63.0286 16.2975V23.5H60.8962V21.8889C60.0196 23.0972 58.835 23.7606 57.1291 23.7606ZM57.603 21.8889C59.3562 21.8889 60.8252 20.7754 60.8252 18.8326V18.1455L58.3848 18.5719C56.6079 18.88 55.4706 19.1169 55.4706 20.3726C55.4706 21.3914 56.134 21.8889 57.603 21.8889ZM69.4938 23.7606C66.6271 23.7606 64.8975 22.4575 64.5658 20.0172H66.8166C67.0772 21.3677 68.0012 21.9126 69.5412 21.9126C71.1997 21.9126 72.1 21.4861 72.1 20.3726C72.1 19.496 71.5077 19.0458 69.8966 18.6667L68.8778 18.4298C66.0584 17.7664 64.9449 16.7476 64.9449 14.9707C64.9449 12.8147 66.6034 11.6063 69.3517 11.6063C72.1711 11.6063 73.877 12.862 74.1139 15.1839H71.8631C71.6736 13.9282 70.8206 13.4544 69.3991 13.4544C67.9538 13.4544 67.1483 13.8334 67.1483 14.8522C67.1483 15.6815 67.6932 16.1316 69.2332 16.487L70.2757 16.7239C73.0951 17.3636 74.3034 18.3824 74.3034 20.2304C74.3034 22.4812 72.5028 23.7606 69.4938 23.7606ZM75.983 23.5V11.867H78.0917V13.3833C78.992 12.1276 79.9634 11.6063 81.5034 11.6063C83.1382 11.6063 84.2991 12.246 84.9388 13.6676C85.7443 12.2934 87.0474 11.6063 88.7059 11.6063C91.3832 11.6063 92.7336 13.1227 92.7336 16.3922V23.5H90.5302V16.5344C90.5302 14.4968 89.8905 13.6202 88.3031 13.6202C86.2893 13.6202 85.46 15.0418 85.46 17.5058V23.5H83.2566V16.5344C83.2566 14.4968 82.5932 13.6202 81.0295 13.6202C78.992 13.6202 78.1864 15.0418 78.1864 17.5058V23.5H75.983ZM98.3264 23.7606C95.9334 23.7606 94.4882 22.6234 94.4882 20.491C94.4882 18.1455 96.4784 17.3399 98.9187 16.9135L102.022 16.3685V15.9421C102.022 14.0704 101.122 13.5017 99.5584 13.5017C97.971 13.5017 97.1655 14.0704 96.9759 15.3971H94.7725C94.962 12.9094 96.9522 11.6063 99.6058 11.6063C102.615 11.6063 104.226 12.9331 104.226 16.2975V23.5H102.094V21.8889C101.217 23.0972 100.032 23.7606 98.3264 23.7606ZM98.8002 21.8889C100.553 21.8889 102.022 20.7754 102.022 18.8326V18.1455L99.5821 18.5719C97.8052 18.88 96.6679 19.1169 96.6679 20.3726C96.6679 21.3914 97.3313 21.8889 98.8002 21.8889Z" fill="black"/>
</svg>
