<svg width="40" height="40" viewBox="0 0 40 40" fill="none" xmlns="http://www.w3.org/2000/svg">
<mask id="mask0_10720_16010" style="mask-type:luminance" maskUnits="userSpaceOnUse" x="9" y="8" width="22" height="24">
<path d="M30.4705 8H9.5293V32H30.4705V8Z" fill="white"/>
</mask>
<g mask="url(#mask0_10720_16010)">
<path d="M20.0797 27.6718L24.5649 25.0823V17.3412L17.861 13.4707L13.2827 16.1139L20.0797 20.0382V27.6718Z" fill="url(#paint0_linear_10720_16010)"/>
<path fill-rule="evenodd" clip-rule="evenodd" d="M16.077 13.18L19.9997 10.9153L22.472 9.48235L20.2474 8.19797C20.0941 8.10947 19.9052 8.10947 19.7519 8.19797L9.92496 13.8716C9.77167 13.9601 9.67725 14.1236 9.67725 14.3006V25.6478C9.67725 25.8249 9.77167 25.9884 9.92496 26.0769L19.7519 31.7505C19.9052 31.8389 20.0941 31.8389 20.2474 31.7505L30.0743 26.0769C30.2276 25.9884 30.3221 25.8249 30.3221 25.6478V23.0748L27.845 24.5037L19.9997 29.0332L12.1543 24.5037V15.4448L16.077 13.18Z" fill="url(#paint1_linear_10720_16010)"/>
<path d="M25.8522 24.3534L30.3374 21.7639V14.2946C30.3374 14.1264 30.2477 13.9711 30.1021 13.887L23.6335 10.1523L19.0552 12.7956L25.8522 16.7199V24.3534Z" fill="url(#paint2_linear_10720_16010)"/>
</g>
<defs>
<linearGradient id="paint0_linear_10720_16010" x1="16.9056" y1="14.3223" x2="15.11" y2="26.8451" gradientUnits="userSpaceOnUse">
<stop stop-color="#624AFF"/>
<stop offset="0.98" stop-color="#DD09FF"/>
</linearGradient>
<linearGradient id="paint1_linear_10720_16010" x1="13.6547" y1="30.2663" x2="16.5172" y2="6.73447" gradientUnits="userSpaceOnUse">
<stop stop-color="#EF41FF"/>
<stop offset="0.67" stop-color="#1F6BFF"/>
<stop offset="1" stop-color="#7DE0FF"/>
</linearGradient>
<linearGradient id="paint2_linear_10720_16010" x1="24.1266" y1="9.57725" x2="21.292" y2="20.7812" gradientUnits="userSpaceOnUse">
<stop stop-color="#7DE0FF"/>
<stop offset="0.985" stop-color="#5707FF"/>
</linearGradient>
</defs>
</svg>
