<svg width="40" height="40" viewBox="0 0 40 40" fill="none" xmlns="http://www.w3.org/2000/svg">
<mask id="mask0_10720_15946" style="mask-type:luminance" maskUnits="userSpaceOnUse" x="8" y="7" width="25" height="25">
<path d="M32.0004 7.99976H8V31.9999H32.0004V7.99976Z" fill="white"/>
</mask>
<g mask="url(#mask0_10720_15946)">
<mask id="mask1_10720_15946" style="mask-type:luminance" maskUnits="userSpaceOnUse" x="8" y="7" width="25" height="25">
<path d="M32.0004 7.99976H8V31.9999H32.0004V7.99976Z" fill="white"/>
</mask>
<g mask="url(#mask1_10720_15946)">
<path d="M22.3815 8.9545L23.0202 10.4505C24.2738 13.3879 26.6135 15.7275 29.5508 16.9811L31.0469 17.6198C31.4384 17.7868 31.7563 18.0262 32.0016 18.3114C31.2566 12.9696 27.0318 8.7442 21.6899 7.99976C21.9746 8.24452 22.2146 8.56296 22.3815 8.9545Z" fill="#999999"/>
<path d="M8.95475 17.6198L10.4508 16.9811C13.3882 15.7275 15.7278 13.3879 16.982 10.4505L17.6201 8.9545C17.7877 8.56296 18.0271 8.24452 18.3117 7.99976C12.9699 8.7442 8.74502 12.9696 8 18.3114C8.24536 18.0262 8.56323 17.7868 8.95475 17.6198Z" fill="#999999"/>
<path d="M31.0469 22.3796L29.5508 23.0182C26.6135 24.2718 24.2738 26.612 23.0202 29.5494L22.3815 31.0448C22.2146 31.4363 21.9746 31.7548 21.6899 32.0002C27.0318 31.2552 31.2566 27.0298 32.0016 21.688C31.7563 21.9731 31.4384 22.2125 31.0469 22.3796Z" fill="#999999"/>
<path d="M17.6201 31.0448L16.982 29.5494C15.7278 26.612 13.3882 24.2718 10.4508 23.0182L8.95475 22.3796C8.56323 22.2125 8.24536 21.9731 8 21.688C8.74502 27.0298 12.9699 31.2552 18.3117 32.0002C18.0271 31.7548 17.7877 31.4363 17.6201 31.0448Z" fill="#999999"/>
</g>
<path d="M14.5557 18.8272L15.293 18.5123C16.7403 17.8944 17.8935 16.7418 18.5114 15.2945L18.8257 14.5572C19.2666 13.5246 20.7304 13.5246 21.1713 14.5572L21.4856 15.2945C22.1035 16.7418 23.2567 17.8944 24.704 18.5123L25.4413 18.8272C26.4739 19.268 26.4739 20.7313 25.4413 21.1722L24.704 21.4871C23.2567 22.105 22.1035 23.2575 21.4856 24.7055L21.1713 25.4421C20.7304 26.4747 19.2666 26.4747 18.8257 25.4421L18.5114 24.7055C17.8935 23.2575 16.7403 22.105 15.293 21.4871L14.5557 21.1722C13.5231 20.7313 13.5231 19.268 14.5557 18.8272Z" fill="black"/>
</g>
</svg>
