<svg width="40" height="40" viewBox="0 0 40 40" fill="none" xmlns="http://www.w3.org/2000/svg">
<rect x="8" y="8" width="24" height="24" rx="12" fill="white"/>
<path fill-rule="evenodd" clip-rule="evenodd" d="M20 32C26.6274 32 32 26.6275 32 20C32 13.3726 26.6274 8 20 8C13.3726 8 8 13.3726 8 20C8 26.6275 13.3726 32 20 32ZM13.8636 13.7273H26.1363V16.4545H21.3637V19.1819H18.6364V16.4545H13.8636V13.7273ZM18.6364 19.1819V24.6364H15.9091V19.1819H18.6364ZM21.3637 19.1819H24.0909V24.6364H21.3641V27.3637H18.6368L18.6364 24.6364H21.3641L21.3637 19.1819Z" fill="#00B988"/>
</svg>
