<svg width="40" height="40" viewBox="0 0 40 40" fill="none" xmlns="http://www.w3.org/2000/svg">
<path d="M15.0212 10.7788L18.7109 14.4953L14.7549 18.48C12.8835 20.3649 12.8835 23.421 14.7549 25.3059C16.5072 27.071 19.2792 27.1832 21.1612 25.6426L20.0183 26.7938C17.2585 29.5736 12.7839 29.5736 10.0241 26.7938L9.56986 26.3362C6.81005 23.5564 6.81005 19.0495 9.56986 16.2697L15.0212 10.7788Z" fill="#161616"/>
<path d="M24.9788 29.2212L21.2891 25.5047L25.2451 21.5199C27.1165 19.635 27.1165 16.579 25.2451 14.6941C23.4928 12.929 20.7209 12.8168 18.8389 14.3574L19.9818 13.2062C22.7416 10.4264 27.2161 10.4264 29.9759 13.2062L30.4302 13.6638C33.19 16.4436 33.19 20.9505 30.4302 23.7303L24.9788 29.2212Z" fill="#161616"/>
</svg>
